<svg xmlns="http://www.w3.org/2000/svg" xmlns:xlink="http://www.w3.org/1999/xlink" preserveAspectRatio="xMidYMid" width="976" height="363" viewBox="0 0 976 363">
  <defs>
    <style>
      .cls-1 {
        fill: #62c75f;
      }

      .cls-1, .cls-2 {
        fill-rule: evenodd;
      }

      .cls-2 {
        fill: #b884b8;
      }

      .cls-3 {
        fill: #4ab1a5;
      }
    </style>
  </defs>
  <path d="M70.734,329.812 L70.766,329.812 C79.749,329.812 87.031,337.095 87.031,346.078 C87.031,355.061 79.749,362.344 70.766,362.344 L70.734,362.344 C61.751,362.344 54.469,355.061 54.469,346.078 C54.469,337.095 61.751,329.812 70.734,329.812 Z" class="cls-1"/>
  <path d="M386.000,0.000 C388.209,0.000 390.000,1.791 390.000,4.000 C390.000,6.209 388.209,8.000 386.000,8.000 C383.791,8.000 382.000,6.209 382.000,4.000 C382.000,1.791 383.791,0.000 386.000,0.000 Z" class="cls-1"/>
  <path d="M219.875,299.156 C224.069,299.156 227.469,302.556 227.469,306.750 C227.469,310.944 224.069,314.344 219.875,314.344 C215.681,314.344 212.281,310.944 212.281,306.750 C212.281,302.556 215.681,299.156 219.875,299.156 Z" class="cls-2"/>
  <rect y="111.344" width="27.5" height="27.5" rx="13.746" ry="13.746" class="cls-3"/>
  <path d="M615.969,82.844 L616.000,82.844 C625.389,82.844 633.000,90.455 633.000,99.844 C633.000,109.233 625.389,116.844 616.000,116.844 L615.969,116.844 C606.580,116.844 598.969,109.233 598.969,99.844 C598.969,90.455 606.580,82.844 615.969,82.844 Z" class="cls-2"/>
  <path d="M959.750,71.469 C968.725,71.469 976.000,78.744 976.000,87.719 L976.000,87.781 C976.000,96.756 968.725,104.031 959.750,104.031 C950.775,104.031 943.500,96.756 943.500,87.781 L943.500,87.719 C943.500,78.744 950.775,71.469 959.750,71.469 Z" class="cls-1"/>
  <path d="M809.000,308.000 C811.209,308.000 813.000,309.791 813.000,312.000 C813.000,314.209 811.209,316.000 809.000,316.000 C806.791,316.000 805.000,314.209 805.000,312.000 C805.000,309.791 806.791,308.000 809.000,308.000 Z" class="cls-2"/>
</svg>
