<?xml version="1.0" encoding="UTF-8" standalone="no"?>
<!DOCTYPE svg PUBLIC "-//W3C//DTD SVG 1.1//EN" "http://www.w3.org/Graphics/SVG/1.1/DTD/svg11.dtd">
<svg xmlns="http://www.w3.org/2000/svg" version="1.1" viewBox="0.00 0.00 64.00 64.00">
<path fill="#ffffff" d="
  M 29.46 15.14
  Q 37.60 15.32 45.73 15.26
  C 51.25 15.22 54.94 17.68 55.08 23.42
  Q 55.10 24.00 54.52 24.00
  L 9.51 24.00
  Q 9.01 24.00 8.98 23.50
  C 8.68 18.70 8.80 14.26 14.04 12.39
  Q 22.18 9.50 28.53 14.79
  Q 28.94 15.12 29.46 15.14
  Z"
/>
<path fill="#ffffff" d="
  M 29.25 31.00
  A 1.41 1.32 -42.3 0 0 31.98 31.04
  Q 32.01 30.72 32.02 29.82
  Q 32.03 29.37 32.48 29.37
  L 54.51 29.37
  Q 55.01 29.37 55.01 29.87
  Q 55.11 35.76 55.04 41.64
  C 54.98 47.86 52.70 51.45 46.30 51.47
  Q 33.05 51.52 19.79 51.51
  C 13.04 51.51 9.09 49.81 8.99 42.63
  Q 8.90 36.27 8.98 29.90
  Q 8.99 29.37 9.51 29.37
  L 28.74 29.37
  Q 29.35 29.37 29.31 29.99
  L 29.25 31.00
  Z
  M 32.02 34.75
  L 29.84 34.65
  A 0.56 0.56 0.0 0 0 29.25 35.20
  C 29.23 37.73 28.16 44.06 32.15 44.22
  A 2.41 2.41 0.0 0 0 34.66 41.87
  L 34.75 37.99
  Q 34.77 37.21 33.99 37.25
  L 32.66 37.32
  Q 32.07 37.35 32.06 36.75
  L 32.02 34.75
  L 33.74 34.72
  A 1.36 1.36 0.0 0 0 33.73 32.00
  L 32.53 31.99
  Q 32.00 31.99 32.00 32.52
  L 32.02 34.75
  Z"
/>
<circle fill="#ffffff" cx="31.99" cy="41.70" r="1.32"/>
</svg>
