<?xml version="1.0" encoding="UTF-8" standalone="no"?>
<!DOCTYPE svg PUBLIC "-//W3C//DTD SVG 1.1//EN" "http://www.w3.org/Graphics/SVG/1.1/DTD/svg11.dtd">
<svg xmlns="http://www.w3.org/2000/svg" version="1.1" viewBox="0.00 0.00 1135.00 172.00">
<path fill="#000000" d="
  M 85.20 16.45
  C 87.44 18.03 88.97 17.85 91.57 17.90
  C 110.58 18.28 129.64 18.55 148.65 18.06
  C 173.59 17.41 194.87 23.56 195.52 53.22
  Q 195.57 55.25 193.54 55.25
  L 6.01 55.25
  A 2.24 2.24 0.0 0 1 3.85 53.60
  C -2.26 31.35 6.85 9.82 30.26 3.83
  Q 53.12 -2.02 74.45 9.30
  Q 76.91 10.61 85.20 16.45
  Z"
/>
<path fill="#000000" d="
  M 869.77 80.91
  C 876.67 70.43 888.83 66.28 900.49 70.35
  C 912.81 74.66 915.52 86.99 915.51 98.50
  Q 915.50 120.03 915.43 141.57
  Q 915.43 142.04 914.96 142.04
  L 894.01 142.04
  Q 893.47 142.04 893.47 141.50
  Q 893.43 121.10 893.43 100.75
  C 893.44 93.93 891.31 87.12 883.57 86.05
  C 877.71 85.24 872.19 89.26 870.22 94.67
  Q 869.26 97.32 869.24 102.96
  Q 869.18 122.25 869.22 141.54
  Q 869.22 142.04 868.72 142.04
  L 847.75 142.04
  Q 847.20 142.04 847.20 141.50
  L 847.20 37.59
  Q 847.20 37.00 847.79 37.00
  L 868.73 37.00
  Q 869.21 37.00 869.21 37.48
  L 869.21 80.74
  A 0.31 0.30 61.8 0 0 869.77 80.91
  Z"
/>
<ellipse fill="#000000" cx="0.00" cy="0.00" transform="translate(944.34,48.47) rotate(0.8)" rx="12.77" ry="11.66"/>
<path fill="#000000" d="
  M 351.41 104.88
  C 343.32 100.89 334.70 98.20 327.22 92.56
  C 313.50 82.24 312.31 60.97 325.46 49.85
  C 338.98 38.41 363.76 39.37 379.78 44.62
  Q 380.25 44.77 380.25 45.26
  L 380.25 65.47
  Q 380.25 65.96 379.83 65.70
  C 371.03 60.22 350.68 54.79 342.15 63.47
  C 338.34 67.34 339.83 72.44 343.65 75.75
  C 351.09 82.20 364.91 85.30 374.50 92.71
  C 388.36 103.43 387.88 125.69 374.89 135.97
  C 360.60 147.27 332.81 145.53 317.28 138.83
  Q 316.75 138.60 316.75 138.03
  L 316.75 116.75
  Q 316.75 115.94 317.38 116.44
  Q 332.19 128.00 350.70 125.46
  C 358.23 124.43 365.22 117.08 358.32 109.93
  Q 355.31 106.81 351.41 104.88
  Z"
/>
<path fill="#000000" d="
  M 256.79 108.72
  L 256.80 141.50
  Q 256.80 142.04 256.25 142.04
  L 234.96 142.04
  Q 234.37 142.04 234.37 141.46
  L 234.37 43.72
  Q 234.37 43.12 234.97 43.11
  Q 254.01 42.79 272.98 42.90
  Q 287.87 42.99 297.82 50.85
  Q 302.63 54.65 304.85 60.90
  C 310.13 75.80 306.48 92.02 293.25 101.23
  C 283.22 108.20 270.97 108.08 257.47 108.05
  Q 256.79 108.05 256.79 108.72
  Z
  M 256.76 60.31
  L 256.82 90.71
  A 0.22 0.22 0.0 0 0 257.04 90.93
  L 268.51 90.91
  A 14.95 13.89 -0.1 0 0 283.43 77.00
  L 283.43 73.94
  A 14.95 13.89 -0.1 0 0 268.45 60.07
  L 256.98 60.09
  A 0.22 0.22 0.0 0 0 256.76 60.31
  Z"
/>
<path fill="#000000" d="
  M 482.39 100.74
  C 482.30 117.33 477.01 134.31 460.10 140.88
  C 449.40 145.04 434.07 145.13 422.73 141.27
  C 408.01 136.26 400.62 120.63 400.33 106.05
  Q 399.99 88.97 400.28 43.49
  Q 400.28 43.00 400.78 43.00
  L 422.19 43.00
  Q 422.65 43.00 422.65 43.46
  Q 422.58 74.26 422.71 104.99
  Q 422.74 110.51 425.40 115.68
  C 429.00 122.67 434.59 125.10 442.24 124.88
  C 455.63 124.48 460.08 114.27 460.00 102.50
  Q 459.89 86.50 460.05 43.51
  Q 460.05 43.01 460.56 43.00
  L 481.95 43.00
  Q 482.42 43.00 482.43 43.47
  Q 482.55 72.13 482.39 100.74
  Z"
/>
<path fill="#000000" d="
  M 544.79 61.38
  L 544.80 141.70
  A 0.34 0.34 0.0 0 1 544.46 142.04
  L 522.71 142.04
  A 0.34 0.34 0.0 0 1 522.37 141.70
  L 522.37 61.38
  A 0.34 0.34 0.0 0 0 522.03 61.04
  L 494.45 61.04
  A 0.34 0.34 0.0 0 1 494.11 60.70
  L 494.12 43.34
  A 0.34 0.34 0.0 0 1 494.46 43.00
  L 572.91 43.00
  A 0.34 0.34 0.0 0 1 573.25 43.34
  L 573.25 60.70
  A 0.34 0.34 0.0 0 1 572.91 61.04
  L 545.13 61.04
  A 0.34 0.34 0.0 0 0 544.79 61.38
  Z"
/>
<path fill="#000000" d="
  M 681.04 120.04
  L 646.27 120.04
  A 0.34 0.34 0.0 0 0 645.94 120.28
  L 639.08 141.80
  A 0.34 0.34 0.0 0 1 638.75 142.04
  L 615.12 142.04
  A 0.34 0.34 0.0 0 1 614.80 141.58
  L 650.77 43.22
  A 0.34 0.34 0.0 0 1 651.09 43.00
  L 677.24 43.00
  A 0.34 0.34 0.0 0 1 677.56 43.23
  L 712.68 141.59
  A 0.34 0.34 0.0 0 1 712.36 142.04
  L 688.60 142.04
  A 0.34 0.34 0.0 0 1 688.27 141.80
  L 681.37 120.28
  A 0.34 0.34 0.0 0 0 681.04 120.04
  Z
  M 663.16 62.18
  Q 662.82 64.84 662.07 67.22
  Q 656.52 84.85 650.94 102.53
  Q 650.79 103.00 651.29 103.00
  L 675.50 103.00
  Q 676.11 103.00 675.93 102.42
  Q 671.04 86.79 665.99 71.22
  C 664.99 68.14 664.27 65.12 663.96 62.16
  Q 663.60 58.77 663.16 62.18
  Z"
/>
<path fill="#000000" d="
  M 745.68 82.60
  C 750.42 72.53 757.00 66.92 769.01 69.59
  Q 769.54 69.71 769.54 70.24
  L 769.55 89.52
  Q 769.55 90.14 768.96 89.91
  C 755.03 84.35 745.26 92.12 745.23 106.50
  Q 745.20 124.02 745.21 141.55
  Q 745.21 142.04 744.72 142.04
  L 723.75 142.04
  Q 723.20 142.04 723.20 141.50
  L 723.20 71.33
  Q 723.20 71.00 723.53 71.00
  L 744.73 71.00
  Q 745.22 71.00 745.22 71.48
  L 745.20 82.49
  Q 745.20 83.62 745.68 82.60
  Z"
/>
<path fill="#000000" d="
  M 802.14 92.25
  C 795.03 100.44 795.41 116.79 804.65 123.42
  C 812.72 129.21 824.52 127.35 832.49 122.22
  A 0.36 0.36 0.0 0 1 833.04 122.52
  L 833.04 139.23
  Q 833.04 139.66 832.66 139.87
  C 824.85 144.30 812.39 144.78 804.25 143.48
  C 782.48 140.02 772.06 120.78 775.55 100.00
  C 779.89 74.12 803.32 65.58 826.75 70.04
  Q 829.83 70.63 832.61 72.07
  Q 833.04 72.29 833.04 72.78
  L 833.04 90.47
  Q 833.04 91.06 832.55 90.73
  C 823.80 84.82 809.66 83.58 802.14 92.25
  Z"
/>
<path fill="#000000" d="
  M 1067.83 112.52
  C 1068.98 133.06 1095.32 129.52 1107.20 122.39
  Q 1107.80 122.03 1107.80 122.73
  L 1107.79 138.00
  Q 1107.79 138.53 1107.33 138.77
  C 1098.86 143.25 1088.43 144.46 1079.04 143.91
  C 1052.43 142.34 1041.54 120.68 1047.39 95.78
  C 1051.45 78.44 1066.54 67.87 1084.50 69.00
  Q 1108.87 70.54 1113.48 95.01
  Q 1114.48 100.36 1113.84 111.68
  Q 1113.82 112.04 1113.45 112.04
  L 1068.28 112.04
  Q 1067.80 112.04 1067.83 112.52
  Z
  M 1086.12 84.68
  C 1076.65 81.40 1068.85 89.34 1067.67 98.38
  Q 1067.59 99.00 1068.22 99.00
  L 1093.01 99.00
  Q 1093.58 99.00 1093.60 98.43
  C 1093.76 92.76 1091.77 86.64 1086.12 84.68
  Z"
/>
<rect fill="#000000" x="933.20" y="71.00" width="21.92" height="71.04" rx="0.31"/>
<path fill="#000000" d="
  M 1002.35 126.04
  L 1017.66 71.56
  Q 1017.82 71.00 1018.41 71.00
  L 1040.19 71.00
  Q 1040.86 71.00 1040.63 71.62
  L 1014.58 141.61
  Q 1014.42 142.04 1013.96 142.04
  L 989.99 142.04
  Q 989.41 142.04 989.21 141.49
  L 964.42 71.52
  Q 964.24 71.00 964.79 71.00
  L 987.21 71.00
  Q 987.69 71.00 987.82 71.45
  Q 998.04 106.87 1001.50 119.99
  Q 1001.96 121.73 1002.26 126.03
  A 0.05 0.05 0.0 0 0 1002.35 126.04
  Z"
/>
<path fill="#000000" d="
  M 97.22 88.24
  A 1.73 1.73 0.0 0 0 98.95 86.53
  L 99.02 78.98
  A 1.75 1.75 0.0 0 1 100.77 77.25
  L 193.26 77.25
  A 1.68 1.67 -1.1 0 1 194.94 78.86
  Q 195.91 104.40 195.67 130.00
  C 195.57 140.95 194.82 151.40 186.76 159.49
  C 177.63 168.66 163.99 169.81 151.73 169.85
  Q 96.95 170.03 42.18 169.98
  Q 29.64 169.97 24.97 168.57
  C 7.68 163.42 3.50 145.71 2.90 129.91
  Q 1.94 104.34 2.98 78.70
  A 1.51 1.51 0.0 0 1 4.49 77.25
  L 85.92 77.25
  A 2.25 2.25 0.0 0 1 88.16 79.66
  L 87.69 86.15
  A 1.96 1.96 0.0 0 0 89.65 88.25
  L 97.22 88.24
  Z
  M 110.2013 90.7021
  A 2.23 2.23 0.0 0 0 107.9519 88.4917
  L 101.4121 88.5487
  A 2.23 2.23 0.0 0 0 99.2017 90.7981
  L 99.2587 97.3379
  A 2.23 2.23 0.0 0 0 101.5081 99.5483
  L 108.0479 99.4913
  A 2.23 2.23 0.0 0 0 110.2583 97.2419
  L 110.2013 90.7021
  Z
  M 99.01 109.47
  L 98.99 102.12
  A 2.37 2.37 0.0 0 0 96.62 99.75
  L 89.75 99.75
  A 1.48 1.48 0.0 0 0 88.27 101.16
  Q 87.83 109.66 87.65 117.85
  Q 87.45 127.17 87.87 129.08
  C 89.34 135.94 97.00 141.81 104.02 137.71
  C 113.20 132.37 111.33 119.99 108.83 111.41
  A 1.25 1.25 0.0 0 0 107.53 110.51
  L 100.73 111.06
  A 1.59 1.59 0.0 0 1 99.01 109.47
  Z"
/>
<circle fill="#000000" cx="98.99" cy="128.87" r="5.75"/>
</svg>
