<?xml version="1.0" encoding="UTF-8" standalone="no"?>
<!DOCTYPE svg PUBLIC "-//W3C//DTD SVG 1.1//EN" "http://www.w3.org/Graphics/SVG/1.1/DTD/svg11.dtd">
<svg xmlns="http://www.w3.org/2000/svg" version="1.1" viewBox="0.00 0.00 1141.00 172.00">
<path fill="#ffffff" d="
  M 43.24 1.98
  C 58.53 1.35 73.16 6.87 84.85 16.76
  C 85.55 17.35 87.04 17.94 87.75 17.96
  Q 123.87 18.72 160.00 18.47
  Q 167.19 18.42 176.13 21.92
  C 189.43 27.12 195.29 39.59 195.08 52.87
  Q 195.05 55.25 192.67 55.25
  Q 99.75 55.25 6.50 55.25
  Q 4.43 55.25 3.94 53.48
  C -4.33 23.85 13.91 3.18 43.24 1.98
  Z"
/>
<path fill="#ffffff" d="
  M 869.60 77.88
  Q 881.07 62.35 898.99 67.03
  C 912.28 70.50 915.53 83.25 915.51 95.25
  Q 915.46 116.91 915.39 138.58
  Q 915.39 139.01 914.95 139.01
  L 894.01 139.01
  Q 893.48 139.01 893.48 138.49
  Q 893.51 117.86 893.44 97.26
  C 893.36 76.70 869.53 79.62 869.36 97.25
  Q 869.16 117.91 869.14 138.57
  Q 869.14 139.02 868.70 139.02
  L 847.75 139.01
  Q 847.24 139.01 847.24 138.50
  L 847.23 34.26
  Q 847.23 34.00 847.49 34.00
  L 868.71 34.00
  Q 869.17 34.00 869.17 34.46
  L 869.17 77.74
  Q 869.17 78.47 869.60 77.88
  Z"
/>
<ellipse fill="#ffffff" cx="0.00" cy="0.00" transform="translate(943.34,45.47) rotate(0.9)" rx="12.74" ry="11.64"/>
<path fill="#ffffff" d="
  M 317.31 113.46
  C 327.61 121.38 341.21 125.23 353.67 121.70
  C 364.10 118.75 362.36 108.15 354.48 103.51
  C 345.74 98.37 333.23 95.37 325.06 87.63
  C 317.75 80.71 315.13 72.05 316.79 62.25
  C 321.48 34.60 360.11 35.34 379.76 41.59
  A 0.71 0.70 9.1 0 1 380.25 42.26
  L 380.25 62.25
  Q 380.25 62.92 379.68 62.58
  Q 368.56 55.87 355.50 56.04
  C 347.04 56.16 334.44 60.90 342.51 71.95
  C 344.02 74.02 349.79 76.93 353.06 78.36
  C 366.93 84.44 383.48 90.62 384.39 108.78
  Q 385.28 126.65 372.59 134.67
  C 358.57 143.54 332.04 142.74 317.16 135.62
  Q 316.75 135.42 316.75 134.97
  L 316.75 113.74
  Q 316.75 113.03 317.31 113.46
  Z"
/>
<path fill="#ffffff" d="
  M 256.77 105.73
  L 256.76 138.50
  Q 256.76 139.01 256.25 139.01
  L 234.95 139.01
  Q 234.38 139.01 234.38 138.45
  L 234.38 40.53
  Q 234.38 40.05 234.85 40.05
  Q 253.17 39.92 271.23 39.95
  Q 282.83 39.96 292.18 44.31
  C 305.12 50.32 308.82 65.73 306.37 78.63
  C 303.56 93.33 289.93 103.00 275.74 104.47
  Q 268.57 105.21 257.52 104.99
  A 0.74 0.73 -89.2 0 0 256.77 105.73
  Z
  M 256.73 57.28
  L 256.79 87.72
  A 0.22 0.22 0.0 0 0 257.01 87.94
  L 268.55 87.92
  A 14.94 13.91 -0.1 0 0 283.46 73.99
  L 283.46 70.93
  A 14.94 13.91 -0.1 0 0 268.49 57.04
  L 256.95 57.06
  A 0.22 0.22 0.0 0 0 256.73 57.28
  Z"
/>
<path fill="#ffffff" d="
  M 421.62 100.25
  C 421.59 114.78 430.56 124.87 445.73 121.31
  C 455.90 118.92 458.95 109.56 458.96 100.25
  Q 458.99 70.40 459.01 40.73
  A 0.74 0.73 -89.6 0 1 459.74 40.00
  L 480.96 40.00
  Q 481.41 40.00 481.41 40.45
  Q 481.45 68.37 481.47 96.24
  C 481.49 117.91 473.59 136.53 450.01 140.29
  Q 435.28 142.64 422.31 138.45
  C 406.87 133.46 399.69 117.64 399.34 102.49
  Q 399.04 89.50 399.30 40.48
  Q 399.31 40.00 399.78 40.00
  L 421.01 40.00
  Q 421.60 40.00 421.60 40.59
  Q 421.68 70.43 421.62 100.25
  Z"
/>
<path fill="#ffffff" d="
  M 544.77 58.34
  L 544.77 138.68
  A 0.33 0.33 0.0 0 1 544.44 139.01
  L 522.71 139.01
  A 0.33 0.33 0.0 0 1 522.38 138.68
  L 522.37 58.35
  A 0.33 0.33 0.0 0 0 522.04 58.02
  L 494.45 58.01
  A 0.33 0.33 0.0 0 1 494.12 57.68
  L 494.13 40.33
  A 0.33 0.33 0.0 0 1 494.46 40.00
  L 572.92 40.00
  A 0.33 0.33 0.0 0 1 573.25 40.33
  L 573.25 57.69
  A 0.33 0.33 0.0 0 1 572.92 58.02
  L 545.10 58.01
  A 0.33 0.33 0.0 0 0 544.77 58.34
  Z"
/>
<path fill="#ffffff" d="
  M 645.92 117.24
  L 639.05 138.79
  A 0.33 0.33 0.0 0 1 638.74 139.02
  L 615.14 139.01
  A 0.33 0.33 0.0 0 1 614.83 138.57
  L 650.79 40.22
  A 0.33 0.33 0.0 0 1 651.10 40.00
  L 677.22 40.00
  A 0.33 0.33 0.0 0 1 677.53 40.22
  L 712.64 138.57
  A 0.33 0.33 0.0 0 1 712.33 139.01
  L 688.62 139.01
  A 0.33 0.33 0.0 0 1 688.31 138.78
  L 681.37 117.24
  A 0.33 0.33 0.0 0 0 681.06 117.01
  L 646.23 117.01
  A 0.33 0.33 0.0 0 0 645.92 117.24
  Z
  M 662.58 62.13
  Q 657.08 80.87 650.84 99.42
  Q 650.64 100.00 651.26 100.00
  L 675.51 100.00
  Q 676.15 100.00 675.96 99.39
  Q 670.89 83.32 665.73 67.28
  C 664.71 64.11 664.20 61.16 663.81 57.98
  A 0.29 0.29 0.0 0 0 663.23 57.98
  C 663.06 59.40 662.98 60.76 662.58 62.13
  Z"
/>
<path fill="#ffffff" d="
  M 745.67 79.64
  Q 746.35 78.30 747.00 76.95
  C 751.20 68.16 759.14 64.56 768.92 66.55
  Q 769.51 66.67 769.51 67.27
  L 769.52 86.50
  Q 769.52 87.21 768.88 86.91
  C 755.58 80.64 745.11 89.74 745.12 103.24
  Q 745.14 120.90 745.19 138.54
  Q 745.19 139.02 744.72 139.02
  L 723.75 139.01
  Q 723.23 139.01 723.23 138.50
  L 723.23 68.51
  Q 723.23 68.00 723.74 68.00
  L 744.72 68.00
  Q 745.18 68.00 745.18 68.47
  L 745.16 79.52
  Q 745.16 80.64 745.67 79.64
  Z"
/>
<path fill="#ffffff" d="
  M 832.56 87.72
  C 820.17 79.60 801.26 81.54 797.79 97.98
  C 792.88 121.22 814.94 130.50 832.55 119.26
  Q 833.01 118.96 833.01 119.51
  L 833.01 136.25
  A 0.87 0.87 0.0 0 1 832.53 137.03
  Q 828.17 139.21 821.75 140.22
  C 796.33 144.22 774.43 131.90 775.06 103.77
  C 775.72 74.10 799.90 62.02 826.49 67.00
  Q 829.71 67.61 832.60 69.09
  Q 833.01 69.31 833.01 69.77
  L 833.01 87.47
  Q 833.01 88.02 832.56 87.72
  Z"
/>
<path fill="#ffffff" d="
  M 1066.80 109.51
  C 1067.87 130.05 1094.30 126.57 1106.20 119.41
  Q 1106.77 119.07 1106.77 119.74
  L 1106.76 135.24
  Q 1106.76 135.73 1106.32 135.92
  Q 1088.71 143.68 1070.44 139.77
  C 1052.28 135.89 1044.76 121.27 1045.09 103.75
  C 1045.52 81.14 1060.29 64.27 1084.13 66.12
  C 1108.59 68.03 1114.35 87.62 1112.78 108.58
  Q 1112.75 109.01 1112.31 109.01
  L 1067.27 109.01
  Q 1066.78 109.01 1066.80 109.51
  Z
  M 1092.68 95.54
  C 1092.82 74.81 1069.08 77.43 1066.64 95.35
  Q 1066.56 96.00 1067.22 96.00
  L 1092.22 96.00
  Q 1092.68 96.00 1092.68 95.54
  Z"
/>
<rect fill="#ffffff" x="932.23" y="68.00" width="21.90" height="71.02" rx="0.26"/>
<path fill="#ffffff" d="
  M 1001.45 123.28
  Q 1008.77 95.81 1016.83 68.53
  Q 1016.99 68.00 1017.54 68.00
  L 1039.21 68.00
  Q 1039.83 68.00 1039.61 68.58
  L 1013.56 138.58
  A 0.67 0.66 -79.8 0 1 1012.94 139.02
  L 988.99 139.01
  Q 988.43 139.01 988.24 138.49
  L 963.44 68.50
  Q 963.27 68.00 963.79 68.00
  L 986.23 68.00
  Q 986.71 68.00 986.84 68.46
  Q 993.06 90.36 999.20 112.25
  Q 1000.87 118.20 1001.33 123.27
  A 0.06 0.06 0.0 0 0 1001.45 123.28
  Z"
/>
<path fill="#ffffff" d="
  M 88.35 88.24
  L 97.88 88.25
  A 0.84 0.84 0.0 0 0 98.72 87.41
  L 98.77 79.11
  A 1.87 1.87 0.0 0 1 100.64 77.25
  L 192.75 77.25
  A 2.16 2.16 0.0 0 1 194.91 79.40
  Q 195.12 105.62 194.94 132.25
  C 194.84 147.98 188.57 163.23 172.82 168.02
  Q 167.49 169.65 153.00 169.77
  Q 87.99 170.34 41.37 169.90
  Q 35.10 169.84 27.24 168.12
  C 7.84 163.88 2.80 148.25 2.77 130.45
  Q 2.73 105.07 2.76 79.50
  A 2.25 2.25 0.0 0 1 5.01 77.25
  L 85.44 77.25
  A 2.34 2.33 -88.8 0 1 87.77 79.69
  L 87.46 87.31
  A 0.90 0.89 -89.1 0 0 88.35 88.24
  Z
  M 98.98 89.70
  L 99.02 98.66
  A 1.16 1.16 0.0 0 0 100.18 99.82
  L 105.62 99.80
  A 6.06 5.51 -0.2 0 0 111.66 94.27
  L 111.66 94.01
  A 6.06 5.51 -0.2 0 0 105.58 88.52
  L 100.14 88.54
  A 1.16 1.16 0.0 0 0 98.98 89.70
  Z
  M 110.10 117.02
  C 110.14 114.88 110.83 112.89 109.29 110.92
  A 1.24 1.22 -20.1 0 0 108.26 110.45
  L 101.14 110.79
  A 1.96 1.96 0.0 0 1 99.08 108.89
  L 98.80 100.65
  Q 98.78 100.02 98.15 100.00
  L 89.36 99.67
  A 1.66 1.65 -86.4 0 0 87.65 101.18
  C 86.83 110.62 83.72 138.01 98.25 139.28
  Q 105.36 139.91 108.29 134.73
  C 110.70 130.47 109.99 122.46 110.10 117.02
  Z"
/>
<circle fill="#ffffff" cx="98.82" cy="128.93" r="5.64"/>
</svg>
