<?xml version="1.0" encoding="UTF-8" standalone="no"?>
<!DOCTYPE svg PUBLIC "-//W3C//DTD SVG 1.1//EN" "http://www.w3.org/Graphics/SVG/1.1/DTD/svg11.dtd">
<svg xmlns="http://www.w3.org/2000/svg" version="1.1" viewBox="0.00 0.00 64.00 64.00">
<path fill="#000000" d="
  M 29.45 15.08
  Q 36.43 15.27 43.41 15.16
  C 50.08 15.06 54.78 16.18 55.14 23.58
  A 0.40 0.40 0.0 0 1 54.74 24.00
  L 9.75 24.00
  Q 9.28 24.00 9.16 23.54
  Q 7.84 18.31 10.58 14.85
  Q 12.99 11.82 17.63 11.36
  Q 23.66 10.76 28.54 14.74
  Q 28.93 15.06 29.45 15.08
  Z"
/>
<path fill="#000000" d="
  M 32.01 31.50
  L 32.02 29.77
  Q 32.02 29.31 32.48 29.31
  L 54.50 29.31
  Q 54.99 29.31 55.00 29.80
  Q 55.34 41.06 55.06 44.26
  C 54.59 49.68 50.41 51.48 45.24 51.49
  Q 30.99 51.54 16.74 51.52
  C 11.34 51.52 9.12 47.35 8.95 42.25
  Q 8.75 36.05 8.96 29.83
  Q 8.98 29.31 9.50 29.31
  L 28.79 29.31
  A 0.57 0.56 2.3 0 1 29.36 29.92
  L 29.25 31.33
  A 0.60 0.60 0.0 0 0 29.84 31.98
  L 31.49 32.01
  Q 32.00 32.01 32.01 31.50
  Z
  M 34.7117 32.5358
  A 0.56 0.56 0.0 0 0 34.1458 31.9817
  L 32.5459 31.9985
  A 0.56 0.56 0.0 0 0 31.9918 32.5643
  L 32.0083 34.1442
  A 0.56 0.56 0.0 0 0 32.5742 34.6983
  L 34.1741 34.6815
  A 0.56 0.56 0.0 0 0 34.7282 34.1157
  L 34.7117 32.5358
  Z
  M 32.00 36.75
  L 32.00 35.21
  Q 32.01 34.67 31.46 34.66
  L 29.90 34.65
  Q 29.40 34.65 29.38 35.14
  Q 29.22 38.07 29.22 41.00
  C 29.22 43.07 31.34 45.05 33.30 43.83
  C 35.06 42.73 34.91 39.44 34.57 37.70
  Q 34.48 37.21 33.98 37.26
  L 32.69 37.38
  Q 32.00 37.45 32.00 36.75
  Z"
/>
<circle fill="#000000" cx="31.99" cy="41.69" r="1.34"/>
</svg>
